<svg version="1.1" viewBox="0.0 0.0 459.5485564304462 462.20472440944883" fill="none" stroke="none" stroke-linecap="square" stroke-miterlimit="10" xmlns:xlink="http://www.w3.org/1999/xlink" xmlns="http://www.w3.org/2000/svg"><clipPath id="p.0"><path d="m0 0l459.54855 0l0 462.2047l-459.54855 0l0 -462.2047z" clip-rule="nonzero"/></clipPath><g clip-path="url(#p.0)"><path fill="#000000" fill-opacity="0.0" d="m0 0l459.54855 0l0 462.2047l-459.54855 0z" fill-rule="evenodd"/><path fill="#dbb539" d="m11.808399 227.4672l0 0c0 -118.34549 96.727646 -214.28346 216.04724 -214.28346l0 0c57.2993 0 112.251755 22.57623 152.76848 62.762173c40.516724 40.185944 63.278778 94.68978 63.278778 151.5213l0 0c0 118.34549 -96.72766 214.28348 -216.04726 214.28348l0 0c-119.319595 0 -216.04724 -95.93799 -216.04724 -214.28348z" fill-rule="evenodd"/><path stroke="#dbb539" stroke-width="8.0" stroke-linejoin="round" stroke-linecap="butt" d="m11.808399 227.4672l0 0c0 -118.34549 96.727646 -214.28346 216.04724 -214.28346l0 0c57.2993 0 112.251755 22.57623 152.76848 62.762173c40.516724 40.185944 63.278778 94.68978 63.278778 151.5213l0 0c0 118.34549 -96.72766 214.28348 -216.04726 214.28348l0 0c-119.319595 0 -216.04724 -95.93799 -216.04724 -214.28348z" fill-rule="evenodd"/><path fill="#000000" d="m125.81413 66.480316c-3.4812546 0 -7.007141 0.68577576 -10.57766 2.057335c-3.5407639 1.3715591 -6.590584 3.533249 -9.149452 6.485077c-2.945671 3.279808 -5.4301605 7.946083 -7.453453 13.998833c-1.9935379 6.0527344 -2.9903107 11.181168 -2.9903107 15.385284l2.722519 0c1.100914 -4.9495316 3.6597824 -9.019478 7.676613 -12.209839c4.046585 -3.2201767 8.985802 -4.830261 14.81765 -4.830261l20.842903 0c0 40.31185 -2.3803558 64.77626 -7.141037 73.3932c-1.2794342 2.3853302 -2.7373962 4.3532104 -4.373886 5.903656c-1.6364899 1.5504456 -3.644905 3.235077 -6.0252533 5.053894c-2.7373962 2.0275269 -4.7011795 3.7717896 -5.89135 5.232788c-1.1901703 1.4609985 -1.7852631 3.4736023 -1.7852631 6.0378265c0 2.5642242 1.2794342 5.1284485 3.8383102 7.6926575c1.1009064 1.2820892 2.3803406 2.3405762 3.8383026 3.1754456c1.457962 0.8348541 2.7373962 1.2522888 3.8383026 1.2522888c6.2186584 0 11.157883 -3.3841553 14.817657 -10.152496c3.6597748 -6.7981567 5.48967 -14.684616 5.48967 -23.659363l0 -73.9299l36.19612 0l0 73.12486c0 9.690338 2.3654633 17.889862 7.096405 24.598572c4.7606964 6.678894 12.080246 10.018326 21.95868 10.018326c7.6766205 0 13.61261 -2.4747772 17.807968 -7.424301c4.2250977 -4.949524 6.3376617 -11.091721 6.3376617 -18.42656c0 -2.3853302 -0.37193298 -4.8601074 -1.1157837 -7.424301c-0.74386597 -2.5642242 -1.6513672 -4.487381 -2.722519 -5.7694855c-1.4877167 5.3073273 -3.7341766 9.660538 -6.7393494 13.059616c-3.005188 3.399063 -6.70961 5.0986023 -11.113235 5.0986023c-8.390717 0 -14.460602 -3.5630493 -18.20964 -10.689194c-3.749054 -7.155945 -5.6235657 -18.068771 -5.6235657 -32.738464l0 -43.427673l53.200714 0l0 -20.886429z" fill-rule="evenodd"/><path fill="#000000" d="m286.37848 266.91464c-0.3729248 4.488312 -0.69918823 11.170044 -0.97888184 20.045197c-0.2796631 8.8497925 -0.41949463 16.850098 -0.41949463 24.000946l0 28.413177l-54.6761 0l0 -1.5975342l54.6761 -70.861786zm2.6568909 -25.788666l-81.80441 100.75839l0 8.558197l77.749146 0l0 18.713898c0 5.629364 -0.3107605 9.813385 -0.932251 12.552002c-0.5904236 2.738617 -1.8644714 4.855957 -3.8222046 6.3520813c-1.9577026 1.4707336 -5.8265076 2.8146667 -11.606415 4.0318604l0 5.591339l56.77365 0l0 -5.591339c-4.28833 -0.9128723 -7.395813 -1.8257751 -9.322449 -2.7386475c-1.8955688 -0.9128723 -3.3405457 -2.053955 -4.3349304 -3.4232483c-0.9633179 -1.3693237 -1.6625061 -3.2330933 -2.0975647 -5.5913696c-0.40396118 -2.3582458 -0.60595703 -6.0858154 -0.60595703 -11.182678l0 -18.713898l33.56079 0l1.6780396 -23.5065l-10.627594 0c-1.3051453 3.7275696 -2.734558 6.4154663 -4.2882996 8.063721c-1.5226746 1.6228638 -3.4493103 2.763977 -5.7799377 3.4232788c-2.330597 0.63391113 -6.199402 0.9508972 -11.606415 0.9508972l-2.9365845 0l0 -98.247986z" fill-rule="evenodd"/><path fill="#000000" d="m376.30582 75.29824l0 0c40.96161 40.61541 64.03143 96.11346 64.03143 154.03754l-214.28348 0z" fill-rule="evenodd"/><path fill="#000000" d="m76.64786 375.0467l0 0c-39.180527 -39.649323 -61.503937 -93.15228 -62.22861 -149.14453l213.16292 -2.7945557z" fill-rule="evenodd"/><path fill="#dbb539" d="m74.86352 372.04724l297.70078 -297.32285l4.9448853 4.9448853l-297.7008 297.32285z" fill-rule="evenodd"/><path stroke="#000000" stroke-width="2.0" stroke-linejoin="round" stroke-linecap="butt" d="m74.86352 372.04724l297.70078 -297.32285l4.9448853 4.9448853l-297.7008 297.32285z" fill-rule="evenodd"/></g></svg>