<?xml version="1.0" standalone="no"?>
<!DOCTYPE svg PUBLIC "-//W3C//DTD SVG 20010904//EN"
 "http://www.w3.org/TR/2001/REC-SVG-20010904/DTD/svg10.dtd">
<svg version="1.0" xmlns="http://www.w3.org/2000/svg"
 width="924.000000pt" height="924.000000pt" viewBox="0 0 924.000000 924.000000"
 preserveAspectRatio="xMidYMid meet">
<metadata>
Created by potrace 1.11, written by Peter Selinger 2001-2013
</metadata>
<g transform="translate(0.000000,924.000000) scale(0.100000,-0.100000)"
fill="#000000" stroke="none">
<path d="M4215 9035 c-561 -51 -1058 -187 -1542 -420 -1844 -888 -2823 -2907
-2372 -4890 290 -1277 1170 -2376 2359 -2949 546 -262 1135 -411 1723 -435
500 -20 954 32 1418 163 987 280 1851 903 2432 1756 486 715 747 1562 747
2430 0 954 -307 1862 -885 2625 -218 288 -513 587 -790 801 -795 615 -1747
939 -2743 933 -114 -1 -270 -7 -347 -14z"/>
</g>
</svg>
